<?xml version="1.0" encoding="UTF-8" standalone="no"?>
<svg
   xmlns:dc="http://purl.org/dc/elements/1.1/"
   xmlns:cc="http://creativecommons.org/ns#"
   xmlns:rdf="http://www.w3.org/1999/02/22-rdf-syntax-ns#"
   xmlns:svg="http://www.w3.org/2000/svg"
   xmlns="http://www.w3.org/2000/svg"
   xmlns:sodipodi="http://sodipodi.sourceforge.net/DTD/sodipodi-0.dtd"
   xmlns:inkscape="http://www.inkscape.org/namespaces/inkscape"
   width="210mm"
   height="297mm"
   viewBox="0 0 210 297"
   version="1.1"
   id="svg8"
   inkscape:version="1.0.2 (e86c870879, 2021-01-15)"
   sodipodi:docname="Conceptual_design.svg">
  <defs
     id="defs2">
    <marker
       style="overflow:visible;"
       id="marker2498"
       refX="0.0"
       refY="0.0"
       orient="auto"
       inkscape:stockid="Arrow1Lend"
       inkscape:isstock="true">
      <path
         transform="scale(0.8) rotate(180) translate(12.5,0)"
         style="fill-rule:evenodd;stroke:#000000;stroke-width:1pt;stroke-opacity:1;fill:#000000;fill-opacity:1"
         d="M 0.0,0.0 L 5.0,-5.0 L -12.5,0.0 L 5.0,5.0 L 0.0,0.0 z "
         id="path2496" />
    </marker>
    <marker
       style="overflow:visible;"
       id="marker2286"
       refX="0.0"
       refY="0.0"
       orient="auto"
       inkscape:stockid="Arrow1Lend"
       inkscape:isstock="true"
       inkscape:collect="always">
      <path
         transform="scale(0.8) rotate(180) translate(12.5,0)"
         style="fill-rule:evenodd;stroke:#000000;stroke-width:1pt;stroke-opacity:1;fill:#000000;fill-opacity:1"
         d="M 0.0,0.0 L 5.0,-5.0 L -12.5,0.0 L 5.0,5.0 L 0.0,0.0 z "
         id="path2284" />
    </marker>
    <marker
       style="overflow:visible"
       id="marker2228"
       refX="0.0"
       refY="0.0"
       orient="auto"
       inkscape:stockid="Arrow1Lstart"
       inkscape:isstock="true">
      <path
         transform="scale(0.8) translate(12.5,0)"
         style="fill-rule:evenodd;stroke:#000000;stroke-width:1pt;stroke-opacity:1;fill:#000000;fill-opacity:1"
         d="M 0.0,0.0 L 5.0,-5.0 L -12.5,0.0 L 5.0,5.0 L 0.0,0.0 z "
         id="path2226" />
    </marker>
    <marker
       style="overflow:visible;"
       id="Arrow1Lend"
       refX="0.0"
       refY="0.0"
       orient="auto"
       inkscape:stockid="Arrow1Lend"
       inkscape:isstock="true"
       inkscape:collect="always">
      <path
         transform="scale(0.8) rotate(180) translate(12.5,0)"
         style="fill-rule:evenodd;stroke:#000000;stroke-width:1pt;stroke-opacity:1;fill:#000000;fill-opacity:1"
         d="M 0.0,0.0 L 5.0,-5.0 L -12.5,0.0 L 5.0,5.0 L 0.0,0.0 z "
         id="path1764" />
    </marker>
    <marker
       style="overflow:visible"
       id="marker2087"
       refX="0.0"
       refY="0.0"
       orient="auto"
       inkscape:stockid="Arrow1Lstart"
       inkscape:isstock="true">
      <path
         transform="scale(0.8) translate(12.5,0)"
         style="fill-rule:evenodd;stroke:#000000;stroke-width:1pt;stroke-opacity:1;fill:#000000;fill-opacity:1"
         d="M 0.0,0.0 L 5.0,-5.0 L -12.5,0.0 L 5.0,5.0 L 0.0,0.0 z "
         id="path2085" />
    </marker>
    <marker
       style="overflow:visible"
       id="marker2059"
       refX="0.0"
       refY="0.0"
       orient="auto"
       inkscape:stockid="Arrow1Lstart"
       inkscape:isstock="true">
      <path
         transform="scale(0.8) translate(12.5,0)"
         style="fill-rule:evenodd;stroke:#000000;stroke-width:1pt;stroke-opacity:1;fill:#000000;fill-opacity:1"
         d="M 0.0,0.0 L 5.0,-5.0 L -12.5,0.0 L 5.0,5.0 L 0.0,0.0 z "
         id="path2057" />
    </marker>
    <marker
       style="overflow:visible"
       id="Arrow1Lstart"
       refX="0.0"
       refY="0.0"
       orient="auto"
       inkscape:stockid="Arrow1Lstart"
       inkscape:isstock="true">
      <path
         transform="scale(0.8) translate(12.5,0)"
         style="fill-rule:evenodd;stroke:#000000;stroke-width:1pt;stroke-opacity:1;fill:#000000;fill-opacity:1"
         d="M 0.0,0.0 L 5.0,-5.0 L -12.5,0.0 L 5.0,5.0 L 0.0,0.0 z "
         id="path1761" />
    </marker>
    <rect
       x="18.471003"
       y="55.872282"
       width="116.09463"
       height="12.581464"
       id="rect1753" />
    <filter
       inkscape:collect="always"
       style="color-interpolation-filters:sRGB"
       id="filter2629"
       x="-5.1365043e-05"
       width="1.0001027"
       y="-2.1187261e-05"
       height="1.0000424">
      <feGaussianBlur
         inkscape:collect="always"
         stdDeviation="0.00095312519"
         id="feGaussianBlur2631" />
    </filter>
  </defs>
  <sodipodi:namedview
     id="base"
     pagecolor="#ffffff"
     bordercolor="#666666"
     borderopacity="1.0"
     inkscape:pageopacity="0.0"
     inkscape:pageshadow="2"
     inkscape:zoom="0.7"
     inkscape:cx="108.62983"
     inkscape:cy="520.43563"
     inkscape:document-units="mm"
     inkscape:current-layer="layer2"
     inkscape:document-rotation="0"
     showgrid="false"
     inkscape:window-width="1920"
     inkscape:window-height="1051"
     inkscape:window-x="0"
     inkscape:window-y="0"
     inkscape:window-maximized="1" />
  <metadata
     id="metadata5">
    <rdf:RDF>
      <cc:Work
         rdf:about="">
        <dc:format>image/svg+xml</dc:format>
        <dc:type
           rdf:resource="http://purl.org/dc/dcmitype/StillImage" />
        <dc:title></dc:title>
      </cc:Work>
    </rdf:RDF>
  </metadata>
  <g
     inkscape:groupmode="layer"
     id="layer2"
     inkscape:label="fondo"
     style="display:inline;filter:url(#filter2629)">
    <rect
       style="opacity:1;fill:#ffffff;fill-opacity:1;stroke:#ffffff;stroke-width:1.49046;stroke-miterlimit:4;stroke-dasharray:none;stroke-opacity:1"
       id="rect2603"
       width="185.54774"
       height="266.23071"
       x="2.4071488"
       y="1.3691101"
       ry="5.5563917"
       inkscape:export-xdpi="96"
       inkscape:export-ydpi="96" />
  </g>
  <g
     inkscape:label="Capa 1"
     inkscape:groupmode="layer"
     id="layer1"
     style="display:inline">
    <path
       style="fill:none;stroke:#000000;stroke-width:0.264583px;stroke-linecap:butt;stroke-linejoin:miter;stroke-opacity:1"
       d="M 10.707167,29.115125 H 139.52867 V 95.242087 H 10.98146 Z"
       id="path1719"
       sodipodi:nodetypes="ccccc"
       inkscape:export-xdpi="96"
       inkscape:export-ydpi="96" />
    <path
       style="fill:none;stroke:#000000;stroke-width:0.264583px;stroke-linecap:butt;stroke-linejoin:miter;stroke-opacity:1"
       d="M 11.196479,53.676757 H 35.503211 V 29.300775"
       id="path1721"
       inkscape:export-xdpi="96"
       inkscape:export-ydpi="96" />
    <circle
       style="stroke:#5fc900;stroke-width:0.665001;stroke-miterlimit:4;stroke-dasharray:none;stroke-opacity:1"
       id="path1725"
       cx="19.20335"
       cy="38.620003"
       r="3.4626412"
       inkscape:export-xdpi="96"
       inkscape:export-ydpi="96" />
    <circle
       style="stroke:#5fc900;stroke-width:0.665001;stroke-miterlimit:4;stroke-dasharray:none;stroke-opacity:1"
       id="path1725-3"
       cx="30.030972"
       cy="38.807678"
       r="3.4626412"
       inkscape:export-xdpi="96"
       inkscape:export-ydpi="96" />
    <text
       xml:space="preserve"
       id="text1751"
       style="font-style:normal;font-weight:normal;font-size:10.5833px;line-height:1.25;font-family:sans-serif;white-space:pre;shape-inside:url(#rect1753);fill:#000000;fill-opacity:1;stroke:none;"
       transform="translate(-8.0107614,-47.178023)"
       inkscape:export-xdpi="96"
       inkscape:export-ydpi="96"><tspan
         x="18.470703"
         y="65.236787"><tspan>Anttenas connectors</tspan></tspan></text>
    <path
       style="fill:none;stroke:#000000;stroke-width:0.465;stroke-linecap:butt;stroke-linejoin:miter;stroke-miterlimit:4;stroke-dasharray:none;stroke-opacity:1;marker-end:url(#Arrow1Lend)"
       d="M 30.641136,20.738346 22.730178,33.341979"
       id="path2055"
       inkscape:export-xdpi="96"
       inkscape:export-ydpi="96" />
    <path
       style="fill:none;stroke:#000000;stroke-width:0.677331px;stroke-linecap:butt;stroke-linejoin:miter;stroke-opacity:1"
       d="m 12.81896,170.9068 h 63.359081 l 54.910029,-54.91003 v 28.26816 l -54.600413,53.8156 -0.309616,-27.17373"
       id="path2181"
       sodipodi:nodetypes="cccccc"
       inkscape:export-xdpi="96"
       inkscape:export-ydpi="96" />
    <path
       style="fill:none;stroke:#000000;stroke-width:0.677331px;stroke-linecap:butt;stroke-linejoin:miter;stroke-opacity:1"
       d="M 76.487655,198.08053 H 13.255302 v -27.54726"
       id="path2183"
       inkscape:export-xdpi="96"
       inkscape:export-ydpi="96" />
    <path
       style="fill:none;stroke:#000000;stroke-width:0.677331px;stroke-linecap:butt;stroke-linejoin:miter;stroke-opacity:1"
       d="m 13.255302,170.53327 48.11615,-48.11615 h 11.654036 l 8.236265,-6.28864 49.826317,-0.13158"
       id="path2185"
       sodipodi:nodetypes="ccccc"
       inkscape:export-xdpi="96"
       inkscape:export-ydpi="96" />
    <rect
       style="stroke:#5fc900;stroke-width:0.6784;stroke-miterlimit:4;stroke-dasharray:none;stroke-opacity:1"
       id="rect2187"
       width="13.515779"
       height="7.6018028"
       x="55.794315"
       y="187.50443"
       inkscape:export-xdpi="96"
       inkscape:export-ydpi="96" />
    <rect
       style="stroke:#164dec;stroke-width:0.6784;stroke-miterlimit:4;stroke-dasharray:none;stroke-opacity:1"
       id="rect2191"
       width="17.650652"
       height="48.907921"
       x="176.70583"
       y="15.338906"
       ry="5.7684741"
       transform="rotate(46)"
       inkscape:export-xdpi="96"
       inkscape:export-ydpi="96" />
    <path
       style="fill:none;stroke:#000000;stroke-width:0.465;stroke-linecap:butt;stroke-linejoin:miter;stroke-miterlimit:4;stroke-dasharray:none;stroke-opacity:1;marker-end:url(#marker2286)"
       d="M 42.021558,234.19571 60.982247,199.33057"
       id="path2204"
       inkscape:export-xdpi="96"
       inkscape:export-ydpi="96" />
    <path
       style="opacity:1;stroke:#804dec;stroke-width:1.01174;stroke-miterlimit:4;stroke-dasharray:none;stroke-opacity:1"
       d="M 42.346395,301.69584 C 41.977608,269.93606 41.675874,234.93427 41.675874,223.91409 V 203.87741 H 88.647967 135.62006 V 157.4104 110.94338 H 331.08458 526.5491 V 235.19214 359.44091 H 284.783 43.016917 Z"
       id="path2206"
       transform="scale(0.26458333)"
       inkscape:export-xdpi="96"
       inkscape:export-ydpi="96" />
    <path
       style="opacity:1;stroke:#564dec;stroke-width:1.01174;stroke-miterlimit:4;stroke-dasharray:none;stroke-opacity:1"
       d="m 43.35647,302.20098 c -0.368744,-30.92639 -0.670444,-65.47361 -0.670444,-76.7716 V 204.88757 H 89.65812 136.63021 V 158.42055 111.95353 H 331.08458 525.53894 V 235.19214 358.43075 H 284.78293 44.026914 Z"
       id="path2208"
       transform="scale(0.26458333)"
       inkscape:export-xdpi="96"
       inkscape:export-ydpi="96" />
    <path
       style="opacity:1;fill:#da5b00;fill-opacity:1;stroke:#564dec;stroke-width:1.01174;stroke-miterlimit:4;stroke-dasharray:none;stroke-opacity:1"
       d="M 44.366541,302.7061 C 43.997842,272.61313 43.696179,238.52048 43.696179,226.94466 V 205.89772 H 90.668272 137.64037 V 159.4307 112.96368 H 331.08458 524.52879 V 235.19214 357.4206 H 284.78284 45.036903 Z"
       id="path2210"
       transform="scale(0.26458333)"
       inkscape:export-xdpi="96"
       inkscape:export-ydpi="96" />
    <path
       style="opacity:1;fill:#da5b00;fill-opacity:1;stroke:#564dec;stroke-width:1.01174;stroke-miterlimit:4;stroke-dasharray:none;stroke-opacity:1"
       d="m 143.1962,554.40035 89.89933,-89.90358 h 21.84286 21.84286 l 15.91753,-12.12183 15.91753,-12.12183 h 91.03431 91.03431 L 388.66327,542.27852 286.64161,644.30392 H 169.96925 53.296884 Z"
       id="path2212"
       transform="scale(0.26458333)"
       inkscape:export-xdpi="96"
       inkscape:export-ydpi="96" />
    <path
       style="opacity:1;fill:#da5b00;fill-opacity:1;stroke:#564dec;stroke-width:1.01174;stroke-miterlimit:4;stroke-dasharray:none;stroke-opacity:1"
       d="M 51.777399,697.34024 V 647.33438 H 168.79194 285.8065 l 0.66822,31.98454 c 0.36752,17.59149 0.66822,40.08541 0.66822,49.98648 v 18.00195 l -117.68277,0.0194 -117.682771,0.0194 z M 263.90943,723.09582 V 706.93338 H 236.63531 209.3612 v 16.16244 16.16244 h 27.27411 27.27412 z"
       id="path2214"
       transform="scale(0.26458333)"
       inkscape:export-xdpi="96"
       inkscape:export-ydpi="96" />
    <path
       style="opacity:1;fill:#da5b00;fill-opacity:1;stroke:#564dec;stroke-width:1.01174;stroke-miterlimit:4;stroke-dasharray:none;stroke-opacity:1"
       d="m 290.83249,734.94221 c -0.35584,-4.57097 -0.64971,-26.2877 -0.65304,-48.25941 l -0.006,-39.94856 4.14687,-3.99308 4.14688,-3.99308 -0.86388,3.53554 c -1.39989,5.72922 -0.8562,13.33284 1.23984,17.3395 3.43172,6.55986 21.08548,24.63242 26.88433,27.52211 6.06419,3.02191 13.0581,3.43466 18.64493,1.10033 6.80224,-2.84216 8.12848,-4.31433 -26.01928,28.88235 l -26.87363,26.12514 z"
       id="path2216"
       transform="scale(0.26458333)"
       inkscape:export-xdpi="96"
       inkscape:export-ydpi="96" />
    <path
       style="opacity:1;fill:#265b00;fill-opacity:1;stroke:#564dec;stroke-width:1.01174;stroke-miterlimit:4;stroke-dasharray:none;stroke-opacity:1"
       d="m 460.64663,570.40088 c 0.33781,-5.26373 0.0318,-8.48859 -1.05151,-11.08131 -2.43949,-5.83853 -21.3684,-25.66715 -27.34624,-28.64603 -6.25261,-3.11581 -14.4033,-3.37013 -20.3521,-0.63502 -2.40197,1.10436 -11.94162,9.54659 -23.52321,20.81713 -10.71543,10.42765 -19.67491,18.76707 -19.90995,18.53203 -0.23504,-0.23505 27.73766,-28.58961 62.16155,-63.01014 l 62.58889,-62.58279 v 50.51606 50.51605 l -16.52194,16.49918 -16.52195,16.49919 z"
       id="path2218"
       transform="scale(0.26458333)"
       inkscape:export-xdpi="96"
       inkscape:export-ydpi="96" />
    <path
       style="opacity:1;fill:#265b00;fill-opacity:1;stroke:#564dec;stroke-width:1.01174;stroke-miterlimit:4;stroke-dasharray:none;stroke-opacity:1"
       d="m 41.675874,156.40024 v -45.45686 h 23.738584 c 13.056222,0 23.738524,0.11364 23.738448,0.25254 -7.6e-5,0.13889 -1.116643,3.87106 -2.481262,8.2937 -1.364618,4.42263 -2.295602,8.22668 -2.068852,8.45343 0.435935,0.43593 14.651777,-11.90446 14.651777,-12.71882 0,-0.26167 -1.136422,-0.25852 -2.525382,0.007 -2.839108,0.54273 -3.062452,0.0398 -1.119202,-2.52008 1.191269,-1.5693 3.399139,-1.76777 19.665845,-1.76777 h 18.32393 v 45.45686 45.45687 H 87.637814 41.675874 Z m 78.169096,3.64983 c 7.03933,-2.94122 10.56001,-12.90844 6.99108,-19.79213 -5.40525,-10.42559 -20.95488,-10.91459 -26.1734,-0.8231 -6.604873,12.77243 5.86887,26.17794 19.18232,20.61523 z m -39.25246,-1.64544 c 9.300305,-5.74791 8.397671,-20.48539 -1.561128,-25.48886 -8.872232,-4.45757 -19.253203,0.81017 -20.837634,10.57388 -0.331088,2.04025 -0.319353,4.83561 0.02607,6.21191 0.791991,3.15554 5.357773,8.6422 8.122397,9.7606 3.904415,1.57951 10.813035,1.06681 14.250289,-1.05753 z"
       id="path2222"
       transform="scale(0.26458333)"
       inkscape:export-xdpi="96"
       inkscape:export-ydpi="96" />
    <path
       style="opacity:1;fill:#da5b00;fill-opacity:1;stroke:#564dec;stroke-width:1.01174;stroke-miterlimit:4;stroke-dasharray:none;stroke-opacity:1"
       d="m 461.66675,566.54859 c -0.40323,-5.63577 -1.10929,-7.99274 -3.41338,-11.39466 -4.08229,-6.02737 -21.43224,-23.3242 -25.50958,-25.43149 -4.44518,-2.2974 -12.77175,-3.1079 -17.7649,-1.72923 -2.18826,0.60421 -4.09997,0.97725 -4.24824,0.82898 -0.14827,-0.14827 18.12255,-18.65752 40.60184,-41.13166 l 40.87142,-40.86208 v 48.6663 48.66629 l -14.73009,14.46356 c -8.10155,7.95496 -14.85802,14.59091 -15.01438,14.74655 -0.15636,0.15565 -0.51307,-2.91451 -0.79269,-6.82256 z"
       id="path2224"
       transform="scale(0.26458333)"
       inkscape:export-xdpi="96"
       inkscape:export-ydpi="96" />
    <text
       xml:space="preserve"
       style="font-style:normal;font-weight:normal;font-size:10.5833px;line-height:1.25;font-family:sans-serif;fill:#000000;fill-opacity:1;stroke:none;stroke-width:0.264583"
       x="11.344158"
       y="244.52809"
       id="text2458"
       inkscape:export-xdpi="96"
       inkscape:export-ydpi="96"><tspan
         sodipodi:role="line"
         id="tspan2456"
         x="11.344158"
         y="244.52809"
         style="stroke-width:0.264583">5v Input voltage</tspan></text>
    <text
       xml:space="preserve"
       style="font-style:normal;font-weight:normal;font-size:10.5833px;line-height:1.25;font-family:sans-serif;fill:#000000;fill-opacity:1;stroke:none;stroke-width:0.264583"
       x="113.78674"
       y="199.69174"
       id="text2462"
       inkscape:export-xdpi="96"
       inkscape:export-ydpi="96"><tspan
         sodipodi:role="line"
         id="tspan2460"
         x="113.78674"
         y="199.69174"
         style="stroke-width:0.264583">OLED Screen</tspan></text>
    <path
       style="fill:none;stroke:#000000;stroke-width:0.465;stroke-linecap:butt;stroke-linejoin:miter;stroke-miterlimit:4;stroke-dasharray:none;stroke-opacity:1;marker-end:url(#marker2498)"
       d="m 144.80625,188.30748 c -4.72175,-3.43104 -29.79484,-21.57244 -29.79484,-21.57244"
       id="path2464"
       inkscape:export-xdpi="96"
       inkscape:export-ydpi="96" />
  </g>
</svg>
